<svg width="37" height="48" viewBox="0 0 37 48" fill="none" xmlns="http://www.w3.org/2000/svg">
<path d="M33.1375 -0.000244141H11.8863C10.1158 -0.000244141 8.66675 1.44746 8.66675 3.2193V44.4455C8.66675 46.2174 10.1158 47.6664 11.8863 47.6664H33.1375C34.9079 47.6664 36.357 46.2201 36.357 44.4469V3.2193C36.357 1.44746 34.9079 -0.000244141 33.1375 -0.000244141ZM19.1126 2.32044H25.9112C26.1264 2.32044 26.3007 2.49477 26.3007 2.71131C26.3007 2.92649 26.1264 3.10081 25.9112 3.10081H19.1126C18.8974 3.10081 18.7231 2.92649 18.7231 2.71131C18.7231 2.49477 18.8974 2.32044 19.1126 2.32044ZM22.5119 46.0567C21.6225 46.0567 20.9021 45.3362 20.9021 44.4455C20.9021 43.5548 21.6225 42.8357 22.5119 42.8357C23.4012 42.8357 24.1216 43.5548 24.1216 44.4455C24.1216 45.3362 23.4012 46.0567 22.5119 46.0567ZM34.1167 41.7081H10.9071V5.10554H34.1167V41.7081Z" fill="#29323B"/>
<rect x="0.866699" y="15.5999" width="18.2" height="17.3333" rx="8.66667" fill="#F9F9F9"/>
<path d="M9.53323 28.5171C10.2484 28.5171 10.8282 27.9374 10.8282 27.2222C10.8282 26.507 10.2484 25.9272 9.53323 25.9272C8.81805 25.9272 8.23828 26.507 8.23828 27.2222C8.23828 27.9374 8.81805 28.5171 9.53323 28.5171Z" fill="#29323B"/>
<path d="M14.5224 22.3042V21.3111C14.5224 19.1661 14.006 16.322 9.53331 16.322C5.06059 16.322 4.5442 19.1661 4.5442 21.3111V22.3042C2.31976 22.5822 1.58887 23.7104 1.58887 26.483V27.9606C1.58887 31.2179 2.58192 32.2109 5.83914 32.2109H13.2275C16.4847 32.2109 17.4778 31.2179 17.4778 27.9606V26.483C17.4778 23.7104 16.7469 22.5822 14.5224 22.3042ZM9.53331 29.621C8.20659 29.621 7.13409 28.5406 7.13409 27.2218C7.13409 25.8951 8.21453 24.8226 9.53331 24.8226C10.8521 24.8226 11.9325 25.903 11.9325 27.2218C11.9325 28.5485 10.86 29.621 9.53331 29.621ZM5.83914 22.2327C5.77559 22.2327 5.71998 22.2327 5.65642 22.2327V21.3111C5.65642 18.9834 6.31581 17.4342 9.53331 17.4342C12.7508 17.4342 13.4102 18.9834 13.4102 21.3111V22.2406C13.3466 22.2406 13.291 22.2406 13.2275 22.2406H5.83914V22.2327Z" fill="#29323B"/>
</svg>
