<svg width="199" height="105" viewBox="0 0 199 105" fill="none" xmlns="http://www.w3.org/2000/svg">
<path d="M48.7559 18.2402C37.3667 18.2402 28.9805 25.894 28.9805 36.5508V36.624C28.9805 46.5483 36.1582 53.8726 46.3389 53.8726C53.48 53.8726 58.7534 50.2104 60.8408 45.3765H61.0605C61.0605 45.9624 61.0239 46.5117 60.9873 47.061C60.6211 57.0586 57.0688 65.1885 48.5728 65.1885C43.8486 65.1885 40.626 62.8447 39.1978 59.2192L39.0879 58.8896H29.7129L29.7861 59.2925C31.4341 67.2759 38.7583 72.9155 48.5361 72.9155C62.0127 72.9155 70.106 62.4785 70.106 45.0103V44.937C70.106 26.4067 60.4014 18.2402 48.7559 18.2402ZM48.7559 46.585C42.75 46.585 38.2822 42.3003 38.2822 36.2944V36.2212C38.2822 30.5083 43.0063 25.9673 48.8657 25.9673C54.7983 25.9673 59.4126 30.5449 59.4126 36.4043V36.4409C59.4126 42.3369 54.7983 46.585 48.7559 46.585ZM81.8979 37.4297C84.8643 37.4297 87.1714 35.0859 87.1714 32.1196C87.1714 29.1533 84.8643 26.8462 81.8979 26.8462C78.9316 26.8462 76.5879 29.1533 76.5879 32.1196C76.5879 35.0859 78.9316 37.4297 81.8979 37.4297ZM81.8979 64.3096C84.8643 64.3096 87.1714 61.9658 87.1714 58.9995C87.1714 56.0332 84.8643 53.7261 81.8979 53.7261C78.9316 53.7261 76.5879 56.0332 76.5879 58.9995C76.5879 61.9658 78.9316 64.3096 81.8979 64.3096ZM119.654 72H128.663V61.856H135.841V54.0923H128.663V19.1558H115.223L93.2871 53.7993V61.856H119.654V72ZM101.783 54.312V54.0557L119.581 26.2969H119.801V54.312H101.783ZM154.994 72H164.259V19.1558H154.92L141.114 28.8604V37.5396L154.774 28.1646H154.994V72Z" fill="white"/>
<path d="M4.1123 100.191H6.00195L8.73535 90.6289H8.7793L11.5039 100.191H13.3936L16.8213 87.5088H14.7734L12.4092 97.4492H12.3652L9.68457 87.5088H7.82129L5.14062 97.4492H5.10547L2.74121 87.5088H0.693359L4.1123 100.191ZM21.1016 100.376C23.3428 100.376 24.7666 99.04 25.0654 97.5723L25.083 97.4756H23.2812L23.2549 97.5459C23.0176 98.2402 22.2705 98.8203 21.1455 98.8203C19.6338 98.8203 18.6758 97.8008 18.6406 96.0518H25.1885V95.4102C25.1885 92.6328 23.5977 90.7695 21.0049 90.7695C18.4121 90.7695 16.7422 92.7031 16.7422 95.5947V95.6035C16.7422 98.5215 18.3857 100.376 21.1016 100.376ZM21.0137 92.3252C22.2529 92.3252 23.1494 93.1074 23.3076 94.707H18.667C18.834 93.1602 19.7832 92.3252 21.0137 92.3252ZM30.1191 100.376C31.4463 100.376 32.4658 99.708 33.0195 98.627H33.0547V100.191H34.9619V87.5088H33.0547V92.5186H33.0195C32.4658 91.4287 31.4111 90.7695 30.1016 90.7695C27.7812 90.7695 26.252 92.6152 26.252 95.5596V95.5684C26.252 98.5127 27.7637 100.376 30.1191 100.376ZM30.6201 98.7412C29.1172 98.7412 28.1943 97.5371 28.1943 95.5684V95.5596C28.1943 93.6084 29.126 92.3955 30.6201 92.3955C32.0439 92.3955 33.0635 93.6436 33.0635 95.5596V95.5684C33.0635 97.4932 32.0527 98.7412 30.6201 98.7412ZM36.9131 100.191H38.8115V94.8037C38.8115 93.3623 39.6729 92.3955 41.0088 92.3955C42.3271 92.3955 42.9775 93.1777 42.9775 94.5664V100.191H44.8848V94.2061C44.8848 92.0791 43.7158 90.7695 41.6855 90.7695C40.2881 90.7695 39.3389 91.4023 38.8555 92.3428H38.8115V90.9453H36.9131V100.191ZM50.668 100.376C52.9092 100.376 54.333 99.04 54.6318 97.5723L54.6494 97.4756H52.8477L52.8213 97.5459C52.584 98.2402 51.8369 98.8203 50.7119 98.8203C49.2002 98.8203 48.2422 97.8008 48.207 96.0518H54.7549V95.4102C54.7549 92.6328 53.1641 90.7695 50.5713 90.7695C47.9785 90.7695 46.3086 92.7031 46.3086 95.5947V95.6035C46.3086 98.5215 47.9521 100.376 50.668 100.376ZM50.5801 92.3252C51.8193 92.3252 52.7158 93.1074 52.874 94.707H48.2334C48.4004 93.1602 49.3496 92.3252 50.5801 92.3252ZM59.6943 100.376C61.874 100.376 63.4561 99.2158 63.4561 97.5283V97.5195C63.4561 96.1924 62.7354 95.4453 60.8457 95.0059L59.3428 94.6631C58.3496 94.4258 57.9717 94.0391 57.9717 93.4678V93.459C57.9717 92.7207 58.6133 92.2373 59.6328 92.2373C60.7051 92.2373 61.3379 92.7998 61.4521 93.6084L61.4609 93.6699H63.2451L63.2363 93.5645C63.1396 91.9912 61.8213 90.7695 59.6328 90.7695C57.5059 90.7695 56.0645 91.9033 56.0645 93.5557V93.5645C56.0645 94.9092 56.9346 95.7529 58.6924 96.1572L60.2041 96.5C61.1973 96.7373 61.5312 97.0801 61.5312 97.6777V97.6865C61.5312 98.4336 60.8457 98.9082 59.7031 98.9082C58.5342 98.9082 57.9014 98.4072 57.7256 97.5547L57.708 97.4668H55.8271L55.8359 97.5459C56.0293 99.2334 57.3828 100.376 59.6943 100.376ZM68.3867 100.376C69.7139 100.376 70.7334 99.708 71.2871 98.627H71.3223V100.191H73.2295V87.5088H71.3223V92.5186H71.2871C70.7334 91.4287 69.6787 90.7695 68.3691 90.7695C66.0488 90.7695 64.5195 92.6152 64.5195 95.5596V95.5684C64.5195 98.5127 66.0312 100.376 68.3867 100.376ZM68.8877 98.7412C67.3848 98.7412 66.4619 97.5371 66.4619 95.5684V95.5596C66.4619 93.6084 67.3936 92.3955 68.8877 92.3955C70.3115 92.3955 71.3311 93.6436 71.3311 95.5596V95.5684C71.3311 97.4932 70.3203 98.7412 68.8877 98.7412ZM77.8965 100.358C79.1182 100.358 80.1904 99.7256 80.7266 98.7324H80.7617V100.191H82.6689V93.8193C82.6689 91.9648 81.2363 90.7695 78.9775 90.7695C76.7012 90.7695 75.3213 91.9912 75.1895 93.582L75.1807 93.6787H76.9736L76.9912 93.5996C77.1494 92.8613 77.8262 92.3428 78.9248 92.3428C80.1025 92.3428 80.7617 92.958 80.7617 93.9775V94.6719L78.248 94.8213C76.0596 94.9531 74.8115 95.9375 74.8115 97.5459V97.5635C74.8115 99.2246 76.0508 100.358 77.8965 100.358ZM76.7275 97.5195V97.502C76.7275 96.7197 77.3604 96.2188 78.5029 96.1484L80.7617 96.0078V96.7285C80.7617 97.9326 79.751 98.8379 78.415 98.8379C77.3955 98.8379 76.7275 98.3281 76.7275 97.5195ZM85.5869 103.276C87.3975 103.276 88.3643 102.538 89.0498 100.622L92.4951 90.9453H90.4912L88.1621 98.4688H88.1006L85.7715 90.9453H83.7148L87.0811 100.2L86.9229 100.64C86.6064 101.536 86.1143 101.773 85.2178 101.773C84.9629 101.773 84.7432 101.738 84.5938 101.703V103.188C84.8223 103.232 85.2178 103.276 85.5869 103.276ZM91.748 102.74H93.084L94.3672 98.2402H92.4688L91.748 102.74ZM98.9111 100.191H100.836V87.5088H98.8936L95.5537 89.8818V91.7451L98.8672 89.46H98.9111V100.191ZM108.359 100.402C111.049 100.402 112.956 98.8555 112.956 96.6846V96.667C112.956 94.8916 111.708 93.7666 109.845 93.5996V93.5557C111.392 93.2305 112.517 92.1758 112.517 90.6025V90.585C112.517 88.6338 110.864 87.2979 108.342 87.2979C105.863 87.2979 104.176 88.6953 103.982 90.8135L103.974 90.9014H105.819L105.828 90.8223C105.951 89.6445 106.936 88.9062 108.342 88.9062C109.774 88.9062 110.601 89.6182 110.601 90.8398V90.8574C110.601 92.0352 109.616 92.8877 108.166 92.8877H106.681V94.417H108.219C109.915 94.417 110.952 95.2168 110.952 96.6494V96.667C110.952 97.8975 109.906 98.7588 108.359 98.7588C106.786 98.7588 105.723 97.9678 105.6 96.8428L105.591 96.7461H103.701L103.71 96.8604C103.886 98.9258 105.652 100.402 108.359 100.402ZM118.669 100.191H123.143C126.922 100.191 129.146 97.8359 129.146 93.8281V93.8105C129.146 89.8203 126.904 87.5088 123.143 87.5088H118.669V100.191ZM120.638 98.4863V89.2051H122.958C125.63 89.2051 127.133 90.8486 127.133 93.8281V93.8457C127.133 96.8428 125.647 98.4863 122.958 98.4863H120.638ZM134.744 100.376C136.985 100.376 138.409 99.04 138.708 97.5723L138.726 97.4756H136.924L136.897 97.5459C136.66 98.2402 135.913 98.8203 134.788 98.8203C133.276 98.8203 132.318 97.8008 132.283 96.0518H138.831V95.4102C138.831 92.6328 137.24 90.7695 134.647 90.7695C132.055 90.7695 130.385 92.7031 130.385 95.5947V95.6035C130.385 98.5215 132.028 100.376 134.744 100.376ZM134.656 92.3252C135.896 92.3252 136.792 93.1074 136.95 94.707H132.31C132.477 93.1602 133.426 92.3252 134.656 92.3252ZM144.28 100.376C146.504 100.376 148.051 98.9521 148.253 97.0977L148.262 97.0361H146.434L146.425 97.1064C146.196 98.1084 145.449 98.7852 144.28 98.7852C142.812 98.7852 141.837 97.5986 141.837 95.5771V95.5684C141.837 93.5908 142.795 92.3604 144.271 92.3604C145.511 92.3604 146.214 93.125 146.416 94.0303L146.434 94.1006H148.244L148.235 94.0391C148.077 92.2988 146.636 90.7695 144.254 90.7695C141.617 90.7695 139.895 92.624 139.895 95.5508V95.5596C139.895 98.5215 141.582 100.376 144.28 100.376ZM153.553 100.376C155.794 100.376 157.218 99.04 157.517 97.5723L157.534 97.4756H155.732L155.706 97.5459C155.469 98.2402 154.722 98.8203 153.597 98.8203C152.085 98.8203 151.127 97.8008 151.092 96.0518H157.64V95.4102C157.64 92.6328 156.049 90.7695 153.456 90.7695C150.863 90.7695 149.193 92.7031 149.193 95.5947V95.6035C149.193 98.5215 150.837 100.376 153.553 100.376ZM153.465 92.3252C154.704 92.3252 155.601 93.1074 155.759 94.707H151.118C151.285 93.1602 152.234 92.3252 153.465 92.3252ZM159.116 100.191H161.015V94.4785C161.015 93.2832 161.814 92.3955 162.939 92.3955C164.012 92.3955 164.688 93.0811 164.688 94.1533V100.191H166.552V94.4082C166.552 93.2393 167.334 92.3955 168.459 92.3955C169.584 92.3955 170.226 93.0898 170.226 94.2939V100.191H172.133V93.8369C172.133 91.9824 170.938 90.7695 169.109 90.7695C167.791 90.7695 166.701 91.4639 166.227 92.5889H166.183C165.813 91.4287 164.882 90.7695 163.607 90.7695C162.395 90.7695 161.454 91.4111 161.059 92.3779H161.015V90.9453H159.116V100.191ZM178.883 100.376C181.229 100.376 182.75 98.5127 182.75 95.5684V95.5596C182.75 92.6152 181.221 90.7695 178.9 90.7695C177.591 90.7695 176.536 91.4287 175.982 92.5186H175.938V87.5088H174.04V100.191H175.938V98.627H175.982C176.527 99.708 177.556 100.376 178.883 100.376ZM178.382 98.7412C176.94 98.7412 175.93 97.4932 175.93 95.5684V95.5596C175.93 93.6436 176.949 92.3955 178.382 92.3955C179.876 92.3955 180.808 93.6084 180.808 95.5596V95.5684C180.808 97.5371 179.876 98.7412 178.382 98.7412ZM188.164 100.376C190.405 100.376 191.829 99.04 192.128 97.5723L192.146 97.4756H190.344L190.317 97.5459C190.08 98.2402 189.333 98.8203 188.208 98.8203C186.696 98.8203 185.738 97.8008 185.703 96.0518H192.251V95.4102C192.251 92.6328 190.66 90.7695 188.067 90.7695C185.475 90.7695 183.805 92.7031 183.805 95.5947V95.6035C183.805 98.5215 185.448 100.376 188.164 100.376ZM188.076 92.3252C189.315 92.3252 190.212 93.1074 190.37 94.707H185.729C185.896 93.1602 186.846 92.3252 188.076 92.3252ZM193.728 100.191H195.626V94.6807C195.626 93.3008 196.382 92.501 197.604 92.501C197.973 92.501 198.307 92.5449 198.456 92.6064V90.8398C198.307 90.8135 198.069 90.7695 197.797 90.7695C196.742 90.7695 195.969 91.4463 195.67 92.5273H195.626V90.9453H193.728V100.191Z" fill="white"/>
</svg>
