<svg width="53" height="53" viewBox="0 0 53 53" fill="none" xmlns="http://www.w3.org/2000/svg">
<path d="M33.454 48.7782H19.1603C8.39626 48.7782 3.79248 44.1745 3.79248 33.4104V33.1254C3.79248 23.3917 7.62897 18.7002 16.2227 17.8891C17.0996 17.8233 17.9327 18.481 18.0204 19.3798C18.1081 20.2786 17.4504 21.0898 16.5296 21.1775C9.64586 21.8132 7.0809 25.0578 7.0809 33.1473V33.4323C7.0809 42.3549 10.2378 45.5118 19.1603 45.5118H33.454C42.3766 45.5118 45.5335 42.3549 45.5335 33.4323V33.1473C45.5335 25.014 42.9246 21.7694 35.9094 21.1775C35.0105 21.0898 34.3309 20.3006 34.4186 19.4017C34.5063 18.5029 35.2736 17.8233 36.1943 17.911C44.9196 18.6563 48.8219 23.3697 48.8219 33.1692V33.4542C48.8219 44.1745 44.2181 48.7782 33.454 48.7782Z" fill="#29323B"/>
<path d="M26.3073 34.2652C25.4085 34.2652 24.6631 33.5198 24.6631 32.621V4.38444C24.6631 3.48561 25.4085 2.74023 26.3073 2.74023C27.2061 2.74023 27.9515 3.48561 27.9515 4.38444V32.621C27.9515 33.5417 27.2061 34.2652 26.3073 34.2652Z" fill="#29323B"/>
<path d="M26.3076 36.7206C25.891 36.7206 25.4745 36.5671 25.1457 36.2383L17.8015 28.8941C17.1658 28.2584 17.1658 27.2061 17.8015 26.5703C18.4373 25.9346 19.4896 25.9346 20.1253 26.5703L26.3076 32.7525L32.4898 26.5703C33.1256 25.9346 34.1778 25.9346 34.8136 26.5703C35.4494 27.2061 35.4494 28.2584 34.8136 28.8941L27.4695 36.2383C27.1406 36.5671 26.7241 36.7206 26.3076 36.7206Z" fill="#29323B"/>
</svg>
